<svg id="Capa_1" enable-background="new 0 0 479.635 479.635" height="512" viewBox="0 0 479.635 479.635" width="512" xmlns="http://www.w3.org/2000/svg"><g><path d="m50.516 54.186c-58.063 46.478-67.455 131.225-20.977 189.288 3.081 3.849 6.371 7.526 9.855 11.014l200.41 200.5 37.014-220.34-37.014-159.485c-46.478-58.063-131.225-67.455-189.288-20.977z" fill="#ff6378"/><path d="m440.152 64.089c-55.958-56.654-150.957-51.3-200.349 11.074v379.825l200.41-200.41c52.586-52.619 52.558-137.904-.061-190.489z" fill="#c30047"/><path d="m174.616 169.647h19.827v134h30v-164h-49.827z" fill="#fbf4f4"/><path d="m337.227 213.936c6.42-7.78 10.281-17.747 10.281-28.598 0-24.813-20.187-45-45-45s-45 20.187-45 45c0 10.852 3.861 20.818 10.281 28.598-11.369 9.784-18.59 24.261-18.59 40.402 0 29.395 23.915 53.31 53.309 53.31s53.309-23.915 53.309-53.31c0-16.141-7.22-30.619-18.59-40.402zm-34.719-43.598c8.271 0 15 6.729 15 15s-6.729 15-15 15-15-6.729-15-15 6.729-15 15-15zm0 107.309c-12.853 0-23.309-10.457-23.309-23.31s10.457-23.309 23.309-23.309 23.309 10.456 23.309 23.309-10.456 23.31-23.309 23.31z" fill="#e9e9ee"/><path d="m140.347 180.98h-30v21.952h-21.952v30h21.952v21.951h30v-21.951h21.951v-30h-21.951z" fill="#fbf4f4"/></g></svg>