<svg id="Capa_1" enable-background="new 0 0 512 512" height="512" viewBox="0 0 512 512" width="512" xmlns="http://www.w3.org/2000/svg"><g><g><path d="m415.127 460.1-29.44-53.266-38.449 17.929 26.629 71.971c6.135 13.158 21.867 18.976 35.134 12.788 13.233-6.171 18.959-21.901 12.788-35.134z" fill="#bfbfbf"/><path d="m129.324 408.245-32.467 51.855-6.662 14.287c-6.171 13.233-.445 28.963 12.788 35.134 13.082 6.104 28.909.562 35.134-12.788l24.193-73.107z" fill="#bfbfbf"/><g fill="#acacac"><path d="m96.857 460.1c12.015 14.021 25.849 26.434 41.139 36.876.039-.081.082-.16.121-.242l32.322-69.316-47.922-22.346z"/><path d="m415.127 460.1-25.66-55.029-47.922 22.346 32.323 69.316c.038.083.082.161.121.242 15.289-10.441 29.123-22.854 41.138-36.875z"/><path d="m107.645 128.516-8.95-5.601-17.256 17.255 5.563 8.992 48.186 48.186 20.644-20.645z"/></g><path d="m64.636 95.167h29.196v51.166h-29.196z" fill="#9c9c9c" transform="matrix(.707 -.707 .707 .707 -62.176 91.395)"/><path d="m34.185 77.745c-20.283 21.38-19.957 55.149 1.007 76.113l8.909 8.909c2.443 2.443 6.404 2.443 8.848 0l66.258-66.259c2.443-2.443 2.443-6.405 0-8.848l-8.909-8.909c-20.965-20.964-54.733-21.289-76.113-1.006z" fill="#eb5569"/><path d="m432.852 136.59-16.791-16.791-13.183 10.179-46.726 46.725 20.644 20.645 46.727-46.726z" fill="#acacac"/><path d="m276.596 70.178v-44.287h-41.208v44.287h-1.293v104.82h43.794v-104.82z" fill="#acacac"/><path d="m234.095 31.732h43.794v38.446h-43.794z" fill="#9c9c9c"/><path d="m318.241 26.328c0-14.54-11.788-26.328-26.328-26.328h-74.761c-14.541 0-26.328 11.788-26.328 26.328 0 14.541 11.788 26.328 26.328 26.328h74.761c14.54 0 26.328-11.787 26.328-26.328z" fill="#eb5569"/><path d="m405.404 106.882h53.231v29.196h-53.231z" fill="#9c9c9c" transform="matrix(.707 -.707 .707 .707 40.636 341.064)"/><path d="m294.833 0h-29.202c14.541 0 26.328 11.788 26.328 26.328 0 14.541-11.788 26.328-26.328 26.328h29.202c14.541 0 26.328-11.787 26.328-26.328 0-14.54-11.787-26.328-26.328-26.328z" fill="#e53950"/><g><path d="m475.742 75.693c-21.38-20.283-55.149-19.958-76.113 1.006l-8.909 8.909c-2.443 2.443-2.443 6.405 0 8.848l66.259 66.259c2.443 2.443 6.404 2.443 8.847 0l8.909-8.909c20.965-20.964 21.29-54.733 1.007-76.113z" fill="#eb5569"/><path d="m476.801 76.7c-3.578-3.578-7.534-6.54-11.733-8.917 11.779 20.811 8.816 47.706-8.917 65.439l-8.909 8.909c-2.443 2.443-6.402 2.443-8.846.002l20.647 20.647c2.443 2.443 6.404 2.443 8.848 0l8.909-8.909c21.311-21.31 21.311-55.861.001-77.171z" fill="#e53950"/></g><path d="m112.362 76.686c-21.31-21.31-55.861-21.31-77.171 0-3.577 3.577-6.54 7.534-8.916 11.733 20.811-11.779 47.706-8.816 65.438 8.916l8.909 8.909c2.443 2.443 2.443 6.405 0 8.848l-47.676 47.676c.001-.001.001-.001.002-.001l68.323-68.324c2.443-2.443 2.443-6.405 0-8.848z" fill="#e53950"/><circle cx="255.992" cy="294.657" fill="#eb5569" r="209.496"/><path d="m255.992 85.161c-4.836 0-9.63.179-14.384.501 108.99 7.392 195.112 98.129 195.112 208.995s-86.121 201.602-195.112 208.995c4.754.322 9.548.501 14.384.501 115.701 0 209.496-93.794 209.496-209.496s-93.795-209.496-209.496-209.496z" fill="#e53950"/><circle cx="255.992" cy="294.657" fill="#e8edf2" r="173.001"/><path d="m255.992 121.656c-5.416 0-10.771.263-16.061.753 87.89 8.13 156.94 82.271 156.94 172.249 0 89.977-69.049 164.118-156.94 172.249 5.29.489 10.645.752 16.061.752 95.393 0 173.001-77.608 173.001-173.001 0-95.394-77.608-173.002-173.001-173.002z" fill="#d9e7ec"/><g><path d="m256.774 289.862c-4.267 0-7.726-3.459-7.726-7.726v-81.07c0-4.267 3.459-7.726 7.726-7.726s7.726 3.459 7.726 7.726v81.07c.001 4.267-3.459 7.726-7.726 7.726z" fill="#838383"/></g><g><path d="m318.139 302.375h-55.524c-4.267 0-7.726-3.459-7.726-7.726s3.459-7.726 7.726-7.726h55.524c4.267 0 7.726 3.459 7.726 7.726s-3.459 7.726-7.726 7.726z" fill="#9c9c9c"/></g><circle cx="256.774" cy="294.649" fill="#fbc56d" r="27.632"/><path d="m83.172 302.383h39.953c4.267 0 7.726-3.459 7.726-7.726s-3.459-7.726-7.726-7.726h-39.953c-.113 2.563-.181 5.137-.181 7.726 0 2.59.068 5.164.181 7.726z" fill="#acacac"/><path d="m255.992 419.797c-4.267 0-7.726 3.459-7.726 7.726v39.953c2.562.114 5.137.182 7.726.182 2.59 0 5.164-.068 7.726-.182v-39.953c.001-4.267-3.459-7.726-7.726-7.726z" fill="#acacac"/><path d="m255.992 121.656c-2.59 0-5.164.068-7.726.181v39.954c0 4.267 3.459 7.726 7.726 7.726s7.726-3.459 7.726-7.726v-39.954c-2.562-.113-5.136-.181-7.726-.181z" fill="#acacac"/><path d="m256.774 267.017c-4.719 0-9.206 1.258-13.141 3.447 8.553 4.759 14.491 13.926 14.491 24.184 0 10.259-5.937 19.425-14.491 24.184 3.935 2.189 8.422 3.447 13.141 3.447 14.978 0 27.632-12.654 27.632-27.632 0-14.977-12.654-27.63-27.632-27.63z" fill="#e9b665"/><path d="m428.812 286.93h-39.953c-4.267 0-7.726 3.46-7.726 7.726 0 4.268 3.459 7.726 7.726 7.726h39.953c.113-2.562.181-5.136.181-7.726 0-2.589-.068-5.163-.181-7.726z" fill="#acacac"/><path d="m428.943 290.737c-.031-1.272-.075-2.54-.131-3.806v-.001h-32.118c.113 2.562.177 5.137.177 7.727s-.064 5.164-.177 7.726h32.118c.056-1.266.1-2.535.131-3.807.029-1.298.049-2.599.05-3.904 0-.005 0-.01 0-.015 0-1.311-.02-2.616-.05-3.92z" fill="#9c9c9c"/><g><path d="m255.992 475.384c-99.653 0-180.728-81.074-180.728-180.727s81.074-180.727 180.728-180.727 180.728 81.073 180.728 180.727-81.074 180.727-180.728 180.727zm0-346.002c-91.133 0-165.275 74.142-165.275 165.275 0 91.132 74.142 165.274 165.275 165.274s165.275-74.142 165.275-165.274c0-91.133-74.142-165.275-165.275-165.275z" fill="#f58a97"/></g></g></g></svg>