<?xml version="1.0" encoding="iso-8859-1"?>
<!-- Generator: Adobe Illustrator 19.0.0, SVG Export Plug-In . SVG Version: 6.00 Build 0)  -->
<svg version="1.1" id="Layer_1" xmlns="http://www.w3.org/2000/svg" xmlns:xlink="http://www.w3.org/1999/xlink" x="0px" y="0px"
	 viewBox="0 0 501.551 501.551" style="enable-background:new 0 0 501.551 501.551;" xml:space="preserve">
<path style="fill:#FF7058;" d="M480.653,447.216H20.898C9.404,447.216,0,456.62,0,468.114v33.437h501.551v-33.437
	C501.551,456.62,492.147,447.216,480.653,447.216z"/>
<path style="fill:#F2F2F2;" d="M446.171,169.273H55.38c-11.494,0-20.898,9.404-20.898,20.898v256h431.543v-256
	C467.069,178.678,457.665,169.273,446.171,169.273z"/>
<path style="fill:#CDD6E0;" d="M267.494,81.502h-33.437c-11.494,0-20.898,9.404-20.898,20.898v66.873h75.233V102.4
	C288.392,90.906,278.988,81.502,267.494,81.502z"/>
<rect x="246.596" y="70.008" style="fill:#ACB3BA;" width="8.359" height="11.494"/>
<path style="fill:#F8B64C;" d="M274.808,47.02c0,13.584-10.449,24.033-24.033,24.033c-13.584,0-24.033-10.449-24.033-24.033
	S250.776,0,250.776,0S274.808,33.437,274.808,47.02z"/>
<path style="fill:#FFD15C;" d="M269.584,42.841c0,10.449-8.359,18.808-18.808,18.808c-10.449,0-18.808-8.359-18.808-18.808
	s18.808-36.571,18.808-36.571S269.584,32.392,269.584,42.841z"/>
<rect x="34.482" y="230.922" style="fill:#F8B64C;" width="431.543" height="153.6"/>
<rect x="34.482" y="261.224" style="fill:#FFD15C;" width="431.543" height="94.041"/>
<path style="fill:#FFFFFF;" d="M467.069,287.347v12.539c-10.449,1.045-20.898,5.224-29.257,13.584
	c-10.449,10.449-25.078,16.718-40.751,16.718s-30.302-6.269-40.751-16.718c-8.359-8.359-19.853-13.584-32.392-13.584
	c-12.539,0-22.988,4.18-32.392,13.584c-11.494,10.449-25.078,16.718-40.751,16.718s-30.302-6.269-40.751-16.718
	c-8.359-8.359-19.853-13.584-32.392-13.584c-11.494,0-22.988,4.18-32.392,13.584c-11.494,10.449-25.078,16.718-40.751,16.718
	s-30.302-6.269-40.751-16.718c-8.359-8.359-17.763-12.539-29.257-13.584v-12.539c14.629,1.045,28.212,6.269,37.616,16.718
	c8.359,8.359,19.853,13.584,32.392,13.584c11.494,0,24.033-5.224,32.392-13.584c10.449-10.449,25.078-16.718,40.751-16.718
	s30.302,6.269,40.751,16.718c8.359,8.359,19.853,13.584,32.392,13.584s24.033-5.224,32.392-13.584
	c10.449-10.449,25.078-16.718,40.751-16.718c15.673,0,30.302,6.269,40.751,16.718c8.359,8.359,19.853,13.584,32.392,13.584
	c11.494,0,24.033-5.224,31.347-13.584C438.857,293.616,452.441,287.347,467.069,287.347z"/>
<rect x="213.159" y="153.6" style="fill:#ACB3BA;" width="75.233" height="15.673"/>
<g>
</g>
<g>
</g>
<g>
</g>
<g>
</g>
<g>
</g>
<g>
</g>
<g>
</g>
<g>
</g>
<g>
</g>
<g>
</g>
<g>
</g>
<g>
</g>
<g>
</g>
<g>
</g>
<g>
</g>
</svg>
