<svg id="breasts" enable-background="new 0 0 300 300" height="512" viewBox="0 0 300 300" width="512" xmlns="http://www.w3.org/2000/svg"><g><circle cx="114.005" cy="133.101" fill="#eaeaea" r="86"/><path d="m240.005 239.648s-12.677-35.174 1.245-61.587l-79.245-50.413-79.245 50.413c13.922 26.413 1.245 61.587 1.245 61.587l29.663 7.964c35.769 7.563 72.779 7.005 108.303-1.633z" fill="#ffded5"/><g fill="#4c241d"><circle cx="36.005" cy="191.101" r="4"/><circle cx="56.005" cy="83.101" r="4"/><path d="m82.607 244.201c-.52 0-1.045-.102-1.553-.316-2.035-.857-2.99-3.203-2.133-5.238.168-.398 16.568-40.154-1.188-65.062-1.281-1.799-.863-4.297.936-5.58 1.803-1.285 4.299-.859 5.58.936 20.363 28.568 2.799 71.025 2.043 72.818-.646 1.524-2.127 2.442-3.685 2.442z"/><path d="m244.777 244.23c-1.586 0-3.088-.951-3.715-2.512-.725-1.807-17.52-44.574 3.357-72.77 1.316-1.771 3.818-2.148 5.596-.834 1.775 1.314 2.148 3.82.834 5.596-18.246 24.641-2.523 64.627-2.361 65.027.822 2.051-.172 4.379-2.223 5.203-.488.197-.992.29-1.488.29z"/></g><path d="m93.96 59.049c.726 12.209-4.983 23.626-14.531 30.925-13.955 10.666-22.091 28.924-18.626 48.829 3.491 20.052 19.365 36.176 38.904 39.569 20.621 3.581 39.364-6.345 49.212-22.566h27.874c9.849 16.221 28.592 26.147 49.212 22.566 19.54-3.393 35.414-19.517 38.904-39.569 3.465-19.904-4.672-38.163-18.626-48.829-9.549-7.299-15.258-18.716-14.531-30.925l-10.084-3.1c-38.368-11.796-79.255-11.796-117.624 0z" fill="#ffded5"/><path d="m218.378 184.475c-18.494 0-35.807-9.355-45.766-25.316-1.17-1.873-.6-4.342 1.275-5.51 1.873-1.174 4.342-.6 5.51 1.275 9.881 15.826 28.271 24.031 46.861 20.889 18.48-3.123 33.687-18.17 36.984-36.592 3.123-17.451-3.668-34.785-17.723-45.236-11.234-8.352-17.455-21.277-16.641-34.58.135-2.203 2.08-3.863 4.236-3.748 2.205.135 3.883 2.031 3.748 4.236-.648 10.594 4.373 20.939 13.43 27.672 16.506 12.273 24.486 32.607 20.824 53.066-3.881 21.684-21.779 39.395-43.527 43.068-3.082.522-6.164.776-9.211.776z" fill="#4c241d"/><circle cx="235.732" cy="141.375" fill="#f4aeab" r="18.273"/><path d="m109.632 184.475c-3.049 0-6.127-.254-9.213-.775-21.748-3.674-39.646-21.385-43.527-43.068-3.662-20.459 4.318-40.793 20.824-53.064 9.057-6.734 14.078-17.08 13.43-27.674-.135-2.205 1.543-4.102 3.748-4.236 2.174-.111 4.104 1.543 4.236 3.748.814 13.303-5.406 26.229-16.641 34.582-14.055 10.449-20.846 27.783-17.723 45.234 3.297 18.422 18.504 33.469 36.984 36.592 18.582 3.139 36.982-5.059 46.861-20.889 1.168-1.875 3.637-2.449 5.51-1.275 1.875 1.168 2.445 3.637 1.275 5.51-9.957 15.957-27.272 25.315-45.764 25.315z" fill="#4c241d"/><circle cx="90.005" cy="141.101" fill="#f4aeab" r="18"/><circle cx="86.005" cy="145.101" fill="#4c241d" r="6"/><circle cx="242.005" cy="145.101" fill="#4c241d" r="6"/></g></svg>