<svg height="512" viewBox="0 0 64 64" width="512" xmlns="http://www.w3.org/2000/svg"><g id="Flat"><g id="Color"><g><path d="m33.474 34.617a16.5 16.5 0 0 1 4 6.928 16.481 16.481 0 0 0 4 6.928 16.508 16.508 0 0 1 4 6.928 3 3 0 0 0 3 5.2l9.526-5.501-15-25.983z" fill="#f9e109"/><path d="m55.67 51.6a6 6 0 0 1 -8.2-2.2 16.5 16.5 0 0 0 -4-6.928l-.028-.029a3.572 3.572 0 0 1 .529-5.321l2.559-1.885-3.53-6.12-9.526 5.5a16.5 16.5 0 0 1 4 6.928 16.481 16.481 0 0 0 4 6.928 16.508 16.508 0 0 1 4 6.928 3 3 0 0 0 3 5.2l9.526-5.501-2.1-3.634z" fill="#fcbc04"/><path d="m29.69 6a6 6 0 0 0 -7.58-2.5l-19.11 8.272a112.235 112.235 0 0 0 21 36.373l21.017-15.6zm-4.736 5.8a2 2 0 1 1 .733-2.732 2 2 0 0 1 -.733 2.732z" fill="#aeb6b7"/><path d="m29.544 44.03a112.225 112.225 0 0 1 -20.208-35l-6.336 2.742a112.235 112.235 0 0 0 21 36.373z" fill="#e6f0f0"/><path d="m40.43 28.951a20 20 0 0 1 -29.363-6.261 112.216 112.216 0 0 1 -5.757-11.919l-2.31 1a112.235 112.235 0 0 0 21 36.374l21.017-15.6-2.83-4.9z" fill="#93999a"/><g fill="#d0d8da"><path d="m11.067 22.69a112.216 112.216 0 0 1 -5.757-11.919l-2.31 1a112.235 112.235 0 0 0 21 36.374l5.544-4.115a112.155 112.155 0 0 1 -9.53-13.03 19.813 19.813 0 0 1 -8.947-8.31z"/><circle cx="43.67" cy="40.277" r="1"/><circle cx="46.67" cy="45.473" r="1"/><circle cx="49.67" cy="50.669" r="1"/></g><path d="m45.694 45.358a.916.916 0 0 0 .569 1.009c-.177-.343-.363-.679-.569-1.009z" fill="#aeb6b7"/><path d="m49.8 51.661a5.984 5.984 0 0 1 -1.08-.751.979.979 0 0 0 .088.259 1 1 0 0 0 .992.492z" fill="#aeb6b7"/></g></g></g></svg>