<?xml version="1.0" encoding="iso-8859-1"?>
<!-- Generator: Adobe Illustrator 19.0.0, SVG Export Plug-In . SVG Version: 6.00 Build 0)  -->
<svg version="1.1" id="Layer_1" xmlns="http://www.w3.org/2000/svg" xmlns:xlink="http://www.w3.org/1999/xlink" x="0px" y="0px"
	 viewBox="0 0 501.725 501.725" style="enable-background:new 0 0 501.725 501.725;" xml:space="preserve">
<path style="fill:#F2F2F2;" d="M6.321,480.778L6.321,480.778c12.539,19.853,38.661,27.167,58.514,14.629l419.004-254.955
	c17.763-10.449,22.988-34.482,12.539-52.245L383.529,0.125C265.456,40.876,160.966,104.615,71.105,190.297l97.176,161.959
	L24.084,420.174C2.141,430.623-7.263,458.836,6.321,480.778z M481.75,200.746c4.18,7.314,2.09,17.763-5.224,21.943
	c-7.314,4.18-17.763,2.09-21.943-5.224c-4.18-7.314-2.09-17.763,5.224-21.943C467.121,190.297,476.525,192.387,481.75,200.746z"/>
<path style="fill:#FF7058;" d="M156.786,357.48L25.129,420.174C2.141,430.623-6.218,458.836,7.366,480.778
	c12.539,19.853,38.661,27.167,58.514,14.629l127.478-78.367L156.786,357.48z"/>
<polygon style="fill:#F1543F;" points="175.594,427.489 192.313,418.085 156.786,357.48 139.023,365.84 "/>
<path style="fill:#E2E2E2;" d="M395.023,19.978L383.529,0.125C265.456,40.876,160.966,104.615,71.105,190.297l11.494,19.853
	C172.46,123.423,276.95,60.729,395.023,19.978z"/>
<g>
</g>
<g>
</g>
<g>
</g>
<g>
</g>
<g>
</g>
<g>
</g>
<g>
</g>
<g>
</g>
<g>
</g>
<g>
</g>
<g>
</g>
<g>
</g>
<g>
</g>
<g>
</g>
<g>
</g>
</svg>
