<?xml version="1.0" encoding="iso-8859-1"?>
<!-- Generator: Adobe Illustrator 19.0.0, SVG Export Plug-In . SVG Version: 6.00 Build 0)  -->
<svg version="1.1" id="Capa_1" xmlns="http://www.w3.org/2000/svg" xmlns:xlink="http://www.w3.org/1999/xlink" x="0px" y="0px"
	 viewBox="0 0 512 512" style="enable-background:new 0 0 512 512;" xml:space="preserve">
<path style="fill:#66C6B9;" d="M430.373,58.667H82.64c-18.133,0-32,13.867-32,32V480c0,18.133,13.867,32,32,32h346.667
	c18.133,0,32-13.867,32-32V90.667C462.373,72.533,447.44,58.667,430.373,58.667z"/>
<rect x="96.506" y="104.533" style="fill:#F3F3F3;" width="320" height="362.667"/>
<rect x="252.24" y="371.2" style="fill:#CED6E0;" width="118.4" height="25.6"/>
<polygon style="fill:#F3705A;" points="169.04,414.933 130.64,376.533 142.373,364.8 169.04,391.467 223.44,336 236.24,348.8 "/>
<rect x="252.24" y="226.133" style="fill:#CED6E0;" width="118.4" height="25.6"/>
<path style="fill:#F3705A;" d="M219.173,281.6H133.84v-85.333h85.333V281.6z M150.906,264.533h51.2v-51.2h-51.2V264.533
	L150.906,264.533z"/>
<path style="fill:#415A6B;" d="M321.573,39.467h-25.6C295.973,17.067,277.84,0,256.506,0S217.04,17.067,217.04,39.467h-25.6
	c-16,0-27.733,12.8-27.733,27.733v51.2h185.6V67.2C349.306,51.2,336.506,39.467,321.573,39.467z M256.506,54.4
	c-8.533,0-14.933-6.4-14.933-14.933s6.4-14.933,14.933-14.933s14.933,6.4,14.933,14.933C271.44,46.933,265.04,54.4,256.506,54.4z"/>
<g>
</g>
<g>
</g>
<g>
</g>
<g>
</g>
<g>
</g>
<g>
</g>
<g>
</g>
<g>
</g>
<g>
</g>
<g>
</g>
<g>
</g>
<g>
</g>
<g>
</g>
<g>
</g>
<g>
</g>
</svg>
