<?xml version="1.0" encoding="iso-8859-1"?>
<!-- Generator: Adobe Illustrator 19.0.0, SVG Export Plug-In . SVG Version: 6.00 Build 0)  -->
<svg version="1.1" id="Capa_1" xmlns="http://www.w3.org/2000/svg" xmlns:xlink="http://www.w3.org/1999/xlink" x="0px" y="0px"
	 viewBox="0 0 512 512" style="enable-background:new 0 0 512 512;" xml:space="preserve">
<path style="fill:#415A6B;" d="M480,427.733H32c-18.133,0-32-13.867-32-32V116.267c0-18.133,13.867-32,32-32h448
	c18.133,0,32,13.867,32,32v278.4C512,412.8,498.133,427.733,480,427.733z"/>
<g>
	<rect x="44.8" y="355.2" style="fill:#344A5E;" width="57.6" height="28.8"/>
	<rect x="132.267" y="355.2" style="fill:#344A5E;" width="57.6" height="28.8"/>
	<rect x="219.733" y="355.2" style="fill:#344A5E;" width="57.6" height="28.8"/>
	<rect x="307.2" y="355.2" style="fill:#344A5E;" width="57.6" height="28.8"/>
	<rect x="394.667" y="355.2" style="fill:#344A5E;" width="57.6" height="28.8"/>
	<path style="fill:#344A5E;" d="M340.267,134.4c-48,18.133-72.533,72.533-54.4,120.533s72.533,72.533,120.533,54.4
		S478.933,236.8,460.8,188.8C442.667,140.8,388.267,116.267,340.267,134.4z M295.467,256l30.933-11.733
		c5.333,13.867,11.733,25.6,19.2,35.2l-24.533,9.6C310.4,280.533,300.8,269.867,295.467,256z M358.4,170.667L347.733,140.8
		c11.733-2.133,25.6,5.333,38.4,19.2L358.4,170.667z M391.467,167.467c7.467,9.6,14.933,21.333,20.267,35.2l-36.267,13.867
		L361.6,179.2L391.467,167.467z M339.2,144l10.667,29.867L323.2,184.533C323.2,165.333,328.533,150.4,339.2,144z M353.067,182.4
		l13.867,37.333L330.667,233.6c-4.267-13.867-7.467-27.733-8.533-39.467L353.067,182.4z M323.2,235.733l-30.933,11.733
		c-4.267-13.867-5.333-27.733-2.133-41.6l24.533-9.6C315.733,209.067,317.867,222.933,323.2,235.733z M333.867,241.067
		l36.267-13.867L384,264.533l-29.867,11.733C346.667,266.667,340.267,254.933,333.867,241.067z M387.2,273.067l10.667,29.867
		c-11.733,2.133-25.6-5.333-38.4-19.2L387.2,273.067z M407.467,299.733L396.8,269.867l26.667-10.667
		C422.4,278.4,417.067,293.333,407.467,299.733z M392.533,261.333L378.667,224l36.267-13.867C419.2,224,422.4,237.867,423.467,249.6
		L392.533,261.333z M422.4,208l30.933-11.733c4.267,13.867,5.333,27.733,2.133,41.6l-24.533,9.6
		C430.933,234.667,427.733,221.867,422.4,208z M420.267,199.467c-5.333-13.867-11.733-25.6-19.2-35.2l24.533-9.6
		c10.667,8.533,20.267,19.2,25.6,33.067L420.267,199.467z M416,149.333l-21.333,7.467c-7.467-9.6-16-16-25.6-20.267
		C386.133,136.533,402.133,140.8,416,149.333z M320,155.733c-3.2,8.533-5.333,19.2-5.333,32l-22.4,8.533
		C297.6,180.267,306.133,166.4,320,155.733z M329.6,295.467l22.4-8.533c7.467,8.533,16,16,24.533,20.267
		C360.533,307.2,343.467,302.933,329.6,295.467z M426.667,288c3.2-8.533,5.333-19.2,5.333-32l22.4-8.533
		C449.067,263.467,439.467,277.333,426.667,288z"/>
</g>
<g>
	<path style="fill:#FFFFFF;" d="M66.133,187.733H45.867V140.8H64c3.2,0,5.333,0,8.533,1.067c2.133,1.067,4.267,2.133,5.333,3.2
		c2.133,2.133,3.2,5.333,3.2,8.533c0,3.2-1.067,6.4-3.2,8.533C76.8,163.2,76.8,163.2,75.733,163.2c0,0-1.067,0-2.133,1.067
		c3.2,1.067,5.333,2.133,6.4,4.267c2.133,2.133,2.133,4.267,2.133,7.467c0,3.2-1.067,6.4-3.2,8.533
		C76.8,185.6,72.533,187.733,66.133,187.733z M56.533,160h5.333c3.2,0,5.333,0,6.4-1.067c1.067-1.067,2.133-2.133,2.133-4.267
		s-1.067-3.2-2.133-4.267c-2.133,0-4.267-1.067-7.467-1.067h-4.267V160z M56.533,178.133H64c3.2,0,5.333,0,6.4-1.067
		c1.067-1.067,2.133-2.133,2.133-4.267s-1.067-3.2-2.133-4.267s-4.267-1.067-7.467-1.067h-6.4V178.133z"/>
	<path style="fill:#FFFFFF;" d="M124.8,187.733l-4.267-9.6h-20.267l-4.267,9.6H85.333L105.6,140.8h9.6l20.267,46.933H124.8z
		 M109.867,154.667l-5.333,13.867h11.733L109.867,154.667z"/>
	<path style="fill:#FFFFFF;" d="M172.8,140.8h10.667v46.933H172.8l-22.4-28.8v28.8h-10.667V140.8h9.6l22.4,29.867V140.8H172.8z"/>
	<path style="fill:#FFFFFF;" d="M195.2,140.8h10.667V160l17.067-19.2h12.8L217.6,161.067c1.067,2.133,4.267,6.4,8.533,12.8
		c4.267,6.4,7.467,10.667,9.6,13.867H224L210.133,169.6l-4.267,5.333v12.8H195.2L195.2,140.8L195.2,140.8z"/>
</g>
<path style="fill:#FFD15C;" d="M136.533,232.533H58.667c-6.4,0-10.667,5.333-10.667,10.667v69.333c0,6.4,5.333,10.667,10.667,10.667
	h76.8c6.4,0,10.667-5.333,10.667-10.667V243.2C147.2,237.867,141.867,232.533,136.533,232.533z"/>
<path style="fill:#F7B64C;" d="M136.533,325.333H58.667c-7.467,0-12.8-5.333-12.8-12.8V243.2c0-7.467,5.333-12.8,12.8-12.8h76.8
	c7.467,0,12.8,5.333,12.8,12.8v69.333C149.333,320,142.933,325.333,136.533,325.333z M58.667,234.667c-5.333,0-9.6,4.267-9.6,9.6
	V313.6c0,5.333,4.267,9.6,9.6,9.6h76.8c5.333,0,9.6-4.267,9.6-9.6v-69.333c0-5.333-4.267-9.6-9.6-9.6H58.667z"/>
<path style="fill:#FFD15C;" d="M75.733,249.6H48v19.2h27.733c5.333,0,9.6-4.267,9.6-9.6S81.067,249.6,75.733,249.6z"/>
<path style="fill:#F7B64C;" d="M75.733,270.933H45.867v-23.467h29.867c6.4,0,11.733,5.333,11.733,11.733
	C87.467,265.6,82.133,270.933,75.733,270.933z M50.133,266.667h25.6c4.267,0,7.467-3.2,7.467-7.467s-3.2-7.467-7.467-7.467h-25.6
	V266.667z"/>
<path style="fill:#FFD15C;" d="M85.333,240c0-3.2-1.067-5.333-3.2-7.467H58.667c-6.4,0-10.667,5.333-10.667,10.667v6.4h27.733
	C81.067,249.6,85.333,245.333,85.333,240z"/>
<path style="fill:#F7B64C;" d="M75.733,251.733H45.867v-7.467c0-7.467,5.333-12.8,12.8-12.8h23.467l0,0
	C85.333,233.6,86.4,236.8,86.4,240C87.467,246.4,82.133,251.733,75.733,251.733z M50.133,247.467h25.6
	c4.267,0,7.467-3.2,7.467-7.467c0-2.133-1.067-4.267-2.133-5.333h-22.4c-5.333,0-9.6,4.267-9.6,9.6v3.2H50.133z"/>
<path style="fill:#FFD15C;" d="M75.733,268.8H48V288h27.733c5.333,0,9.6-4.267,9.6-9.6S81.067,268.8,75.733,268.8z"/>
<path style="fill:#F7B64C;" d="M75.733,290.133H45.867v-23.467h29.867c6.4,0,11.733,5.333,11.733,11.733
	C87.467,284.8,82.133,290.133,75.733,290.133z M50.133,286.933h25.6c4.267,0,7.467-3.2,7.467-7.467S80,272,75.733,272h-25.6V286.933
	z"/>
<path style="fill:#FFD15C;" d="M75.733,288H48v19.2h27.733c5.333,0,9.6-4.267,9.6-9.6C85.333,292.267,81.067,288,75.733,288z"/>
<path style="fill:#F7B64C;" d="M75.733,309.333H45.867v-23.467h29.867c6.4,0,11.733,5.333,11.733,11.733
	C87.467,304,82.133,309.333,75.733,309.333z M50.133,306.133h25.6c4.267,0,7.467-3.2,7.467-7.467S80,291.2,75.733,291.2h-25.6
	V306.133z"/>
<path style="fill:#FFD15C;" d="M119.467,304H147.2v-19.2h-27.733c-5.333,0-9.6,4.267-9.6,9.6S114.133,304,119.467,304z"/>
<path style="fill:#F7B64C;" d="M149.333,306.133h-29.867c-6.4,0-11.733-5.333-11.733-11.733s5.333-11.733,11.733-11.733h29.867
	V306.133z M119.467,286.933c-4.267,0-7.467,3.2-7.467,7.467s3.2,7.467,7.467,7.467h25.6v-16h-25.6V286.933z"/>
<path style="fill:#FFD15C;" d="M109.867,313.6c0,5.333,4.267,9.6,9.6,9.6h17.067c6.4,0,10.667-5.333,10.667-10.667V304h-27.733
	C114.133,304,109.867,308.267,109.867,313.6z"/>
<path style="fill:#F7B64C;" d="M136.533,325.333h-17.067c-6.4,0-11.733-5.333-11.733-11.733c0-6.4,5.333-11.733,11.733-11.733
	h29.867v10.667C149.333,320,142.933,325.333,136.533,325.333z M119.467,306.133c-4.267,0-7.467,3.2-7.467,7.467
	s3.2,7.467,7.467,7.467h17.067c5.333,0,9.6-4.267,9.6-9.6v-6.4h-26.667V306.133z"/>
<path style="fill:#FFD15C;" d="M119.467,284.8H147.2v-19.2h-27.733c-5.333,0-9.6,4.267-9.6,9.6
	C109.867,280.533,114.133,284.8,119.467,284.8z"/>
<path style="fill:#F7B64C;" d="M149.333,286.933h-29.867c-6.4,0-11.733-5.333-11.733-11.733s5.333-11.733,11.733-11.733h29.867
	V286.933z M119.467,267.733c-4.267,0-7.467,3.2-7.467,7.467c0,4.267,3.2,7.467,7.467,7.467h25.6v-16h-25.6V267.733z"/>
<g>
</g>
<g>
</g>
<g>
</g>
<g>
</g>
<g>
</g>
<g>
</g>
<g>
</g>
<g>
</g>
<g>
</g>
<g>
</g>
<g>
</g>
<g>
</g>
<g>
</g>
<g>
</g>
<g>
</g>
</svg>
