<?xml version="1.0" encoding="iso-8859-1"?>
<!-- Generator: Adobe Illustrator 19.0.0, SVG Export Plug-In . SVG Version: 6.00 Build 0)  -->
<svg version="1.1" id="Capa_1" xmlns="http://www.w3.org/2000/svg" xmlns:xlink="http://www.w3.org/1999/xlink" x="0px" y="0px"
	 viewBox="0 0 512 512" style="enable-background:new 0 0 512 512;" xml:space="preserve">
<rect x="222.32" y="76.57" style="fill:#666666;" width="67.35" height="30"/>
<rect x="256" y="76.57" style="fill:#4D4D4D;" width="33.675" height="30"/>
<g>
	<path style="fill:#999999;" d="M118.831,192.393c-21.991,0-39.883-17.892-39.883-39.883s17.892-39.883,39.883-39.883
		s39.883,17.892,39.883,39.883S140.822,192.393,118.831,192.393z M118.831,142.628c-5.449,0-9.883,4.434-9.883,9.883
		s4.434,9.883,9.883,9.883s9.883-4.434,9.883-9.883S124.28,142.628,118.831,142.628z"/>
	<path style="fill:#999999;" d="M155.465,158.358c-21.992,0-39.883-17.892-39.883-39.883s17.891-39.883,39.883-39.883
		s39.883,17.892,39.883,39.883S177.457,158.358,155.465,158.358z M155.465,108.593c-5.449,0-9.883,4.434-9.883,9.883
		s4.434,9.883,9.883,9.883c5.45,0,9.883-4.434,9.883-9.883S160.915,108.593,155.465,108.593z"/>
	<path style="fill:#999999;" d="M197.442,131.457c-21.991,0-39.883-17.892-39.883-39.883s17.892-39.883,39.883-39.883
		s39.883,17.892,39.883,39.883S219.433,131.457,197.442,131.457z M197.442,81.691c-5.449,0-9.883,4.434-9.883,9.883
		s4.434,9.883,9.883,9.883s9.883-4.434,9.883-9.883S202.891,81.691,197.442,81.691z"/>
</g>
<path style="fill:#CCCCCC;" d="M191.317,247.384v-71.475H46.345v71.475C18.178,269.134,0,303.22,0,341.478
	c0,65.523,53.307,118.831,118.831,118.831s118.831-53.308,118.831-118.831C237.662,303.22,219.484,269.134,191.317,247.384z
	 M118.831,430.309C69.85,430.309,30,390.459,30,341.478s39.85-88.831,88.831-88.831s88.831,39.85,88.831,88.831
	S167.812,430.309,118.831,430.309z"/>
<g>
	<path style="fill:#999999;" d="M393.169,192.393c-21.991,0-39.883-17.892-39.883-39.883s17.892-39.883,39.883-39.883
		s39.883,17.892,39.883,39.883S415.16,192.393,393.169,192.393z M393.169,142.628c-5.449,0-9.883,4.434-9.883,9.883
		s4.434,9.883,9.883,9.883s9.883-4.434,9.883-9.883S398.618,142.628,393.169,142.628z"/>
	<path style="fill:#999999;" d="M356.535,158.358c-21.992,0-39.883-17.892-39.883-39.883s17.892-39.883,39.883-39.883
		s39.883,17.892,39.883,39.883S378.526,158.358,356.535,158.358z M356.535,108.593c-5.45,0-9.883,4.434-9.883,9.883
		s4.434,9.883,9.883,9.883s9.883-4.434,9.883-9.883S361.984,108.593,356.535,108.593z"/>
	<path style="fill:#999999;" d="M314.558,131.457c-21.991,0-39.883-17.892-39.883-39.883s17.892-39.883,39.883-39.883
		s39.883,17.892,39.883,39.883S336.549,131.457,314.558,131.457z M314.558,81.691c-5.449,0-9.883,4.434-9.883,9.883
		s4.434,9.883,9.883,9.883s9.883-4.434,9.883-9.883S320.007,81.691,314.558,81.691z"/>
</g>
<path style="fill:#B3B3B3;" d="M191.317,247.384v-71.475h-72.486v76.737c48.981,0,88.831,39.85,88.831,88.831
	s-39.85,88.831-88.831,88.831v30c65.524,0,118.831-53.308,118.831-118.831C237.662,303.22,219.484,269.134,191.317,247.384z"/>
<path style="fill:#CCCCCC;" d="M465.655,247.384v-71.475H320.683v71.475c-28.167,21.749-46.345,55.836-46.345,94.093
	c0,65.523,53.307,118.831,118.831,118.831S512,407.001,512,341.478C512,303.22,493.822,269.134,465.655,247.384z M393.169,430.309
	c-48.981,0-88.831-39.85-88.831-88.831s39.85-88.831,88.831-88.831S482,292.496,482,341.478S442.15,430.309,393.169,430.309z"/>
<path style="fill:#B3B3B3;" d="M465.655,247.384v-71.475h-72.486v76.737c48.981,0,88.831,39.85,88.831,88.831
	s-39.85,88.831-88.831,88.831v30C458.693,460.308,512,407,512,341.477C512,303.22,493.822,269.134,465.655,247.384z"/>
<g>
</g>
<g>
</g>
<g>
</g>
<g>
</g>
<g>
</g>
<g>
</g>
<g>
</g>
<g>
</g>
<g>
</g>
<g>
</g>
<g>
</g>
<g>
</g>
<g>
</g>
<g>
</g>
<g>
</g>
</svg>
