<svg id="Layer_2" enable-background="new 0 0 512 512" height="512" viewBox="0 0 512 512" width="512" xmlns="http://www.w3.org/2000/svg"><g><g><g><path d="m482 440h-452c-11.046 0-20-8.954-20-20v-40h492v40c0 11.046-8.954 20-20 20z" fill="#6e83b7"/></g><g><path d="m476 380h-440v-288c0-11.046 8.954-20 20-20h400c11.046 0 20 8.954 20 20z" fill="#6e83b7"/></g><g><path d="m128 32h256v388h-256z" fill="#80d6fb" transform="matrix(0 1 -1 0 482 -30)"/></g><g><path d="m36 365h440v15h-440z" fill="#466089"/></g><g><path d="m206 400h100l10-20h-120z" fill="#d3d3d3"/></g></g><g><path d="m176 171h160v48h-160z" fill="#46bee8"/></g><g><path d="m216 236h80v20h-80z" fill="#98ca69"/></g></g></svg>