<?xml version="1.0" encoding="iso-8859-1"?>
<!-- Generator: Adobe Illustrator 19.0.0, SVG Export Plug-In . SVG Version: 6.00 Build 0)  -->
<svg version="1.1" id="Capa_1" xmlns="http://www.w3.org/2000/svg" xmlns:xlink="http://www.w3.org/1999/xlink" x="0px" y="0px"
	 viewBox="0 0 512 512" style="enable-background:new 0 0 512 512;" xml:space="preserve">
<circle style="fill:#08B7FC;" cx="256" cy="256" r="256"/>
<path style="fill:#006DFF;" d="M512,256c0,141.385-114.615,256-256,256c0-161.058,0-467.885,0-512C397.385,0,512,114.615,512,256z"
	/>
<g>
	<path style="fill:#79D60D;" d="M346.135,167.45c-20.406,29.438-118.983-45.137-158.413,34.581
		c-39.431,79.718,50.574,83.147,61.717,126.863c12.753,50.032,14.918,107.148,60.86,107.148c40.288,0,72.003-42.859,72.861-163.722
		c0.632-89.174,72.778-39.565,125.529-57.49c-15.392-95.196-83.27-172.795-172.996-202.163
		C235.74,74.318,369.79,133.326,346.135,167.45z"/>
	<path style="fill:#79D60D;" d="M55.408,256c0-75.396,116.017-94.255,35.777-195.872C35.434,107.088,0,177.401,0,256
		c0,62.266,22.238,119.333,59.194,163.711C102.093,357.102,55.408,334.892,55.408,256z"/>
</g>
<path style="fill:#33BC00;" d="M346.135,167.45c-12.101,17.457-51.691-1.663-90.135-3.494c0,29.229-0.001,194.09-0.001,194.09
	c8.638,40.71,17.18,77.996,54.299,77.996c40.288,0,72.003-42.859,72.861-163.722c0.632-89.174,72.778-39.565,125.529-57.49
	c-15.392-95.196-83.27-172.795-172.996-202.163C235.74,74.318,369.79,133.326,346.135,167.45z"/>
<g>
</g>
<g>
</g>
<g>
</g>
<g>
</g>
<g>
</g>
<g>
</g>
<g>
</g>
<g>
</g>
<g>
</g>
<g>
</g>
<g>
</g>
<g>
</g>
<g>
</g>
<g>
</g>
<g>
</g>
</svg>
